<mxfile host="app.diagrams.net" modified="2024-02-05T18:48:17.876Z" agent="Mozilla/5.0 (Windows NT 10.0; Win64; x64) AppleWebKit/537.36 (KHTML, like Gecko) Chrome/121.0.0.0 Safari/537.36" etag="OHvEbRPSFyjr8KpZf67u" version="23.1.1" type="device">
  <diagram name="PÃ¡gina-1" id="coTKvjQlKIKFWbdNmKuG">
    <mxGraphModel dx="1434" dy="746" grid="1" gridSize="10" guides="1" tooltips="1" connect="1" arrows="1" fold="1" page="1" pageScale="1" pageWidth="827" pageHeight="1169" math="0" shadow="0">
      <root>
        <mxCell id="0" />
        <mxCell id="1" parent="0" />
        <mxCell id="UGSfjqcHQ7StBELT_S3b-5" style="edgeStyle=orthogonalEdgeStyle;rounded=0;orthogonalLoop=1;jettySize=auto;html=1;entryX=0.5;entryY=0;entryDx=0;entryDy=0;" edge="1" parent="1" source="UGSfjqcHQ7StBELT_S3b-1" target="UGSfjqcHQ7StBELT_S3b-4">
          <mxGeometry relative="1" as="geometry" />
        </mxCell>
        <mxCell id="UGSfjqcHQ7StBELT_S3b-1" value="Inicio" style="ellipse;whiteSpace=wrap;html=1;" vertex="1" parent="1">
          <mxGeometry x="300" y="20" width="120" height="80" as="geometry" />
        </mxCell>
        <mxCell id="UGSfjqcHQ7StBELT_S3b-9" style="edgeStyle=orthogonalEdgeStyle;rounded=0;orthogonalLoop=1;jettySize=auto;html=1;entryX=0.5;entryY=0;entryDx=0;entryDy=0;" edge="1" parent="1" source="UGSfjqcHQ7StBELT_S3b-2" target="UGSfjqcHQ7StBELT_S3b-8">
          <mxGeometry relative="1" as="geometry" />
        </mxCell>
        <mxCell id="UGSfjqcHQ7StBELT_S3b-2" value="Ingrese Valor1" style="shape=parallelogram;perimeter=parallelogramPerimeter;whiteSpace=wrap;html=1;fixedSize=1;" vertex="1" parent="1">
          <mxGeometry x="160" y="260" width="120" height="60" as="geometry" />
        </mxCell>
        <mxCell id="UGSfjqcHQ7StBELT_S3b-12" style="edgeStyle=orthogonalEdgeStyle;rounded=0;orthogonalLoop=1;jettySize=auto;html=1;entryX=0.5;entryY=0;entryDx=0;entryDy=0;" edge="1" parent="1" source="UGSfjqcHQ7StBELT_S3b-3" target="UGSfjqcHQ7StBELT_S3b-11">
          <mxGeometry relative="1" as="geometry" />
        </mxCell>
        <mxCell id="UGSfjqcHQ7StBELT_S3b-3" value="Ingrese Valor2" style="shape=parallelogram;perimeter=parallelogramPerimeter;whiteSpace=wrap;html=1;fixedSize=1;" vertex="1" parent="1">
          <mxGeometry x="430" y="260" width="120" height="60" as="geometry" />
        </mxCell>
        <mxCell id="UGSfjqcHQ7StBELT_S3b-6" style="edgeStyle=orthogonalEdgeStyle;rounded=0;orthogonalLoop=1;jettySize=auto;html=1;" edge="1" parent="1" source="UGSfjqcHQ7StBELT_S3b-4" target="UGSfjqcHQ7StBELT_S3b-2">
          <mxGeometry relative="1" as="geometry" />
        </mxCell>
        <mxCell id="UGSfjqcHQ7StBELT_S3b-7" style="edgeStyle=orthogonalEdgeStyle;rounded=0;orthogonalLoop=1;jettySize=auto;html=1;entryX=0.5;entryY=0;entryDx=0;entryDy=0;" edge="1" parent="1" source="UGSfjqcHQ7StBELT_S3b-4" target="UGSfjqcHQ7StBELT_S3b-3">
          <mxGeometry relative="1" as="geometry" />
        </mxCell>
        <mxCell id="UGSfjqcHQ7StBELT_S3b-4" value="Calculadora Basica" style="rounded=0;whiteSpace=wrap;html=1;" vertex="1" parent="1">
          <mxGeometry x="300" y="150" width="120" height="60" as="geometry" />
        </mxCell>
        <mxCell id="UGSfjqcHQ7StBELT_S3b-10" style="edgeStyle=orthogonalEdgeStyle;rounded=0;orthogonalLoop=1;jettySize=auto;html=1;entryX=1;entryY=0.5;entryDx=0;entryDy=0;" edge="1" parent="1" source="UGSfjqcHQ7StBELT_S3b-8" target="UGSfjqcHQ7StBELT_S3b-2">
          <mxGeometry relative="1" as="geometry">
            <mxPoint x="340" y="240" as="targetPoint" />
            <Array as="points">
              <mxPoint x="320" y="430" />
              <mxPoint x="320" y="290" />
            </Array>
          </mxGeometry>
        </mxCell>
        <mxCell id="UGSfjqcHQ7StBELT_S3b-15" value="NO" style="edgeLabel;html=1;align=center;verticalAlign=middle;resizable=0;points=[];" vertex="1" connectable="0" parent="UGSfjqcHQ7StBELT_S3b-10">
          <mxGeometry x="-0.8812" y="-2" relative="1" as="geometry">
            <mxPoint as="offset" />
          </mxGeometry>
        </mxCell>
        <mxCell id="UGSfjqcHQ7StBELT_S3b-18" style="edgeStyle=orthogonalEdgeStyle;rounded=0;orthogonalLoop=1;jettySize=auto;html=1;exitX=0.5;exitY=1;exitDx=0;exitDy=0;entryX=0;entryY=0.5;entryDx=0;entryDy=0;" edge="1" parent="1" source="UGSfjqcHQ7StBELT_S3b-8" target="UGSfjqcHQ7StBELT_S3b-17">
          <mxGeometry relative="1" as="geometry" />
        </mxCell>
        <mxCell id="UGSfjqcHQ7StBELT_S3b-24" value="SI" style="edgeLabel;html=1;align=center;verticalAlign=middle;resizable=0;points=[];" vertex="1" connectable="0" parent="UGSfjqcHQ7StBELT_S3b-18">
          <mxGeometry x="-0.5016" y="-2" relative="1" as="geometry">
            <mxPoint as="offset" />
          </mxGeometry>
        </mxCell>
        <mxCell id="UGSfjqcHQ7StBELT_S3b-8" value="Valor &amp;gt; 0" style="rhombus;whiteSpace=wrap;html=1;" vertex="1" parent="1">
          <mxGeometry x="180" y="390" width="80" height="80" as="geometry" />
        </mxCell>
        <mxCell id="UGSfjqcHQ7StBELT_S3b-19" style="edgeStyle=orthogonalEdgeStyle;rounded=0;orthogonalLoop=1;jettySize=auto;html=1;entryX=1;entryY=0.5;entryDx=0;entryDy=0;" edge="1" parent="1" source="UGSfjqcHQ7StBELT_S3b-11" target="UGSfjqcHQ7StBELT_S3b-17">
          <mxGeometry relative="1" as="geometry">
            <Array as="points">
              <mxPoint x="490" y="555" />
            </Array>
          </mxGeometry>
        </mxCell>
        <mxCell id="UGSfjqcHQ7StBELT_S3b-25" value="SI" style="edgeLabel;html=1;align=center;verticalAlign=middle;resizable=0;points=[];" vertex="1" connectable="0" parent="UGSfjqcHQ7StBELT_S3b-19">
          <mxGeometry x="-0.517" y="2" relative="1" as="geometry">
            <mxPoint as="offset" />
          </mxGeometry>
        </mxCell>
        <mxCell id="UGSfjqcHQ7StBELT_S3b-26" style="edgeStyle=orthogonalEdgeStyle;rounded=0;orthogonalLoop=1;jettySize=auto;html=1;entryX=0;entryY=0.5;entryDx=0;entryDy=0;" edge="1" parent="1" source="UGSfjqcHQ7StBELT_S3b-11" target="UGSfjqcHQ7StBELT_S3b-3">
          <mxGeometry relative="1" as="geometry">
            <Array as="points">
              <mxPoint x="390" y="430" />
              <mxPoint x="390" y="290" />
            </Array>
          </mxGeometry>
        </mxCell>
        <mxCell id="UGSfjqcHQ7StBELT_S3b-27" value="NO" style="edgeLabel;html=1;align=center;verticalAlign=middle;resizable=0;points=[];" vertex="1" connectable="0" parent="UGSfjqcHQ7StBELT_S3b-26">
          <mxGeometry x="-0.8191" y="2" relative="1" as="geometry">
            <mxPoint as="offset" />
          </mxGeometry>
        </mxCell>
        <mxCell id="UGSfjqcHQ7StBELT_S3b-11" value="Valor &amp;gt; 0" style="rhombus;whiteSpace=wrap;html=1;" vertex="1" parent="1">
          <mxGeometry x="450" y="390" width="80" height="80" as="geometry" />
        </mxCell>
        <mxCell id="UGSfjqcHQ7StBELT_S3b-21" style="edgeStyle=orthogonalEdgeStyle;rounded=0;orthogonalLoop=1;jettySize=auto;html=1;entryX=0.5;entryY=0;entryDx=0;entryDy=0;" edge="1" parent="1" source="UGSfjqcHQ7StBELT_S3b-17" target="UGSfjqcHQ7StBELT_S3b-20">
          <mxGeometry relative="1" as="geometry" />
        </mxCell>
        <mxCell id="UGSfjqcHQ7StBELT_S3b-17" value="Seleccionar Operacion&lt;br&gt;&lt;br&gt;Suma - Resta - Multiplicacion - Division - Modulo" style="rounded=0;whiteSpace=wrap;html=1;" vertex="1" parent="1">
          <mxGeometry x="280" y="520" width="170" height="85" as="geometry" />
        </mxCell>
        <mxCell id="UGSfjqcHQ7StBELT_S3b-23" style="edgeStyle=orthogonalEdgeStyle;rounded=0;orthogonalLoop=1;jettySize=auto;html=1;" edge="1" parent="1" source="UGSfjqcHQ7StBELT_S3b-20" target="UGSfjqcHQ7StBELT_S3b-22">
          <mxGeometry relative="1" as="geometry" />
        </mxCell>
        <mxCell id="UGSfjqcHQ7StBELT_S3b-20" value="Resultado Operacion" style="shape=document;whiteSpace=wrap;html=1;boundedLbl=1;" vertex="1" parent="1">
          <mxGeometry x="305" y="650" width="120" height="80" as="geometry" />
        </mxCell>
        <mxCell id="UGSfjqcHQ7StBELT_S3b-22" value="FIN" style="ellipse;whiteSpace=wrap;html=1;" vertex="1" parent="1">
          <mxGeometry x="305" y="750" width="120" height="80" as="geometry" />
        </mxCell>
      </root>
    </mxGraphModel>
  </diagram>
</mxfile>
